<svg width="789" height="475" viewBox="0 0 789 475" fill="none" xmlns="http://www.w3.org/2000/svg">
<g clip-path="url(#clip0_5_194)">
<path d="M222.643 473.96H553.66V131.96C553.66 59.1969 494.873 0 422.614 0H353.689C281.43 0 222.643 59.1969 222.643 131.96V473.96Z" fill="#F2F2F2"/>
<path d="M291.567 473.96H553.66V131.96C553.733 104.079 544.965 76.9023 528.634 54.3873C528.032 53.561 527.431 52.7455 526.812 51.9388C518.913 41.5063 509.512 32.3185 498.921 24.6787C498.323 24.2404 497.722 23.8097 497.113 23.3789C488.25 17.2032 478.664 12.1547 468.571 8.34825C467.971 8.1195 467.361 7.8903 466.751 7.67046C457.623 4.39025 448.161 2.14332 438.539 0.97116C437.942 0.889107 437.33 0.8249 436.717 0.760692C427.341 -0.248844 417.884 -0.248844 408.508 0.760692C407.897 0.8249 407.285 0.889099 406.681 0.972038C397.062 2.14427 387.602 4.39093 378.477 7.6705C377.866 7.89034 377.256 8.11952 376.655 8.34873C366.686 12.1071 357.213 17.0803 348.445 23.1573C347.835 23.5787 347.226 24.0094 346.625 24.4402C340.688 28.7074 335.112 33.4614 329.953 38.6535C325.816 42.8182 321.961 47.2575 318.413 51.9415C317.796 52.7455 317.196 53.5611 316.595 54.386C300.263 76.9013 291.495 104.078 291.567 131.96V473.96Z" fill="#CCCCCC" fill-opacity="0.8"/>
<path d="M312.879 320.996C304.865 320.996 298.369 314.454 298.369 306.385C298.369 298.315 304.865 291.773 312.879 291.773C320.893 291.773 327.39 298.315 327.39 306.385C327.39 314.454 320.893 320.996 312.879 320.996Z" fill="#CDA6FF"/>
<path d="M249.76 463.717H260.879L266.169 420.532L249.759 420.533L249.76 463.717Z" fill="#9A7057"/>
<path d="M268.821 460.518H247.378V474.113H282.322C282.322 472.327 281.973 470.559 281.294 468.91C280.616 467.261 279.621 465.762 278.367 464.499C277.114 463.237 275.625 462.236 273.987 461.552C272.349 460.869 270.594 460.518 268.821 460.518Z" fill="#2F2E41"/>
<path d="M194.44 463.717H205.558L210.848 420.532L194.438 420.533L194.44 463.717Z" fill="#9A7057"/>
<path d="M213.5 460.518H192.058V474.113H227.001C227.001 472.327 226.652 470.559 225.973 468.91C225.295 467.261 224.3 465.762 223.047 464.499C221.793 463.237 220.305 462.236 218.667 461.552C217.029 460.869 215.273 460.518 213.5 460.518Z" fill="#2F2E41"/>
<path d="M305.535 309.279C306.335 308.093 306.867 306.744 307.093 305.328C307.319 303.912 307.234 302.463 306.844 301.084C306.454 299.704 305.769 298.428 304.836 297.344C303.903 296.26 302.745 295.396 301.445 294.811L263.649 189.913L245.051 200.133L288.206 300.378C287.375 302.643 287.399 305.136 288.273 307.385C289.146 309.634 290.808 311.482 292.944 312.579C295.08 313.677 297.542 313.947 299.862 313.339C302.183 312.73 304.202 311.286 305.535 309.279Z" fill="#9A7057"/>
<path d="M200.119 328.99C201.354 328.277 202.42 327.299 203.24 326.127C204.059 324.954 204.614 323.614 204.864 322.202C205.114 320.79 205.054 319.34 204.687 317.955C204.321 316.569 203.657 315.281 202.742 314.181L214.451 203.216L193.286 204.19L188.42 313.338C186.687 315.008 185.623 317.259 185.429 319.666C185.234 322.072 185.923 324.467 187.365 326.397C188.808 328.326 190.902 329.656 193.253 330.134C195.603 330.612 198.046 330.205 200.119 328.99Z" fill="#9A7057"/>
<path d="M233.883 170.483C221.582 170.483 211.609 160.441 211.609 148.053C211.609 135.666 221.582 125.624 233.883 125.624C246.185 125.624 256.158 135.666 256.158 148.053C256.158 160.441 246.185 170.483 233.883 170.483Z" fill="#9A7057"/>
<path d="M200.261 303.753H267.414L267.333 303.227C267.213 302.441 255.365 224.29 264.103 198.722C264.98 196.21 264.903 193.459 263.887 191.001C262.87 188.542 260.987 186.549 258.599 185.404C246.109 179.482 222.135 172.189 201.899 189.887C198.922 192.535 196.597 195.843 195.108 199.551C193.619 203.26 193.007 207.266 193.321 211.253L200.261 303.753Z" fill="#CDA6FF"/>
<path d="M254.517 235.839L284.75 229.663L270.578 195.847C269.73 192.571 267.627 189.768 264.729 188.053C261.831 186.337 258.376 185.849 255.122 186.695C251.867 187.541 249.079 189.652 247.368 192.566C245.657 195.48 245.164 198.958 245.996 202.237L254.517 235.839Z" fill="#CDA6FF"/>
<path d="M215.796 247.307L217.613 205.352C218.992 197.466 214.508 190.01 207.613 188.791C200.715 187.577 193.98 193.047 192.596 200.992L185.764 240.194L215.796 247.307Z" fill="#CDA6FF"/>
<path d="M202.496 298.731C191.69 340.17 190.511 392.856 193.427 450.325L207.937 448.499L234.237 338.912L248.747 450.325L265.071 449.412C269.948 389.112 274.697 337.346 266.885 303.297L202.496 298.731Z" fill="#2F2E41"/>
<path d="M219.207 165.387C223.362 169.845 231.079 167.452 231.621 161.363C231.663 160.89 231.66 160.414 231.612 159.942C231.332 157.245 229.785 154.796 230.155 151.948C230.239 151.239 230.501 150.564 230.917 149.986C234.228 145.521 242.001 151.983 245.127 147.941C247.043 145.462 244.79 141.56 246.261 138.79C248.202 135.134 253.95 136.937 257.555 134.935C261.566 132.707 261.326 126.51 258.686 122.741C255.466 118.144 249.82 115.691 244.245 115.338C238.67 114.984 233.133 116.502 227.928 118.545C222.014 120.865 216.149 124.073 212.51 129.309C208.084 135.677 207.658 144.238 209.872 151.685C211.218 156.214 215.813 161.748 219.207 165.387Z" fill="#2F2E41"/>
<path d="M363.666 374.876H481.562C483.115 374.885 484.607 374.272 485.713 373.174C486.818 372.076 487.445 370.581 487.457 369.018V104.03C487.445 102.466 486.818 100.971 485.713 99.8729C484.607 98.7746 483.115 98.1626 481.562 98.171H363.666C362.113 98.1626 360.62 98.7746 359.515 99.8729C358.41 100.971 357.783 102.466 357.771 104.03V369.018C357.783 370.581 358.41 372.076 359.515 373.174C360.62 374.272 362.113 374.885 363.666 374.876Z" fill="white"/>
<path d="M357.771 183.913H487.457V185.739H357.771V183.913Z" fill="#CCCCCC" fill-opacity="0.8"/>
<path d="M357.317 288.12H487.003V289.947H357.317V288.12Z" fill="#CCCCCC" fill-opacity="0.8"/>
<path d="M444.833 98.1709H446.646V375.789H444.833V98.1709Z" fill="#CCCCCC" fill-opacity="0.8"/>
<path d="M399.488 98.1709H401.302V375.789H399.488V98.1709Z" fill="#CCCCCC" fill-opacity="0.8"/>
</g>
<defs>
<clipPath id="clip0_5_194">
<rect width="789" height="475" fill="white" transform="matrix(-1 0 0 1 789 0)"/>
</clipPath>
</defs>
</svg>
